#N canvas 781 93 1398 1028 12;
#X obj 246 322 midiout;
#X obj 217 141 oscparse;
#X obj 261 59 netreceive -u -b 32126;
#X obj 171 305 print;
#X obj 206 212 route ex;
#X obj 212 177 list trim;
#X connect 1 0 5 0;
#X connect 2 0 1 0;
#X connect 4 0 3 0;
#X connect 4 0 0 0;
#X connect 5 0 4 0;
