#N canvas 106 247 1288 942 12;
#X obj 165 402 midiout;
#X obj 470 198 table lookup;
#X obj 135 29 notein;
#X obj 31 167 print raw note;
#X obj 335 292 print tab result;
#X obj 268 191 tabread lookup;
#X obj 164 345 pack 0 0 0;
#X msg 151 263 160;
#X obj 150 220 bng 20 250 50 0 empty empty empty 0 -10 0 12 #fcfcfc #000000 #000000;
#X obj 289 406 print midi out;
#X obj 213 115 route 0;
#X msg 215 161 0;
#X obj 331 110 print after route;
#X obj 267 162 spigot;
#X obj 341 147 tgl 20 0 empty empty empty 0 -10 0 12 #fcfcfc #000000 #000000 0 1;
#X obj 93 312 print bang;
#X obj 296 48 print F1;
#X obj 388 76 print F2;
#X obj 487 104 print B;
#X obj 130 72 trigger b f f;
#X connect 2 0 3 0;
#X connect 2 0 19 0;
#X connect 2 1 10 0;
#X connect 5 0 4 0;
#X connect 5 0 6 2;
#X connect 6 0 0 0;
#X connect 6 0 9 0;
#X connect 7 0 6 0;
#X connect 7 0 15 0;
#X connect 8 0 7 0;
#X connect 10 0 11 0;
#X connect 10 0 14 0;
#X connect 10 1 12 0;
#X connect 10 1 14 0;
#X connect 11 0 6 2;
#X connect 13 0 5 0;
#X connect 14 0 13 1;
#X connect 19 0 8 0;
#X connect 19 1 6 1;
#X connect 19 2 13 0;
